<?xml version="1.0" encoding="UTF-8" standalone="no"?>
<!DOCTYPE svg PUBLIC "-//W3C//DTD SVG 1.1//EN" "http://www.w3.org/Graphics/SVG/1.1/DTD/svg11.dtd">
<svg width="100%" height="100%" viewBox="0 0 90 90" version="1.1" xmlns="http://www.w3.org/2000/svg" xmlns:xlink="http://www.w3.org/1999/xlink" xml:space="preserve" xmlns:serif="http://www.serif.com/" style="fill-rule:evenodd;clip-rule:evenodd;stroke-linejoin:round;stroke-miterlimit:2;">
    <g transform="matrix(1,0,0,1,3.5,25)">
        <path d="M81.013,21.94C81.013,21.94 79.008,23.498 77.243,23.324C75.479,23.15 76.033,19.198 76.033,19.198C76.033,19.198 76.413,15.573 75.373,15.268C74.337,14.966 73.058,16.213 73.058,16.213C73.058,16.213 71.467,17.982 70.706,20.237L70.496,20.306C70.496,20.306 70.739,16.351 70.463,15.45C70.256,15 68.353,15.035 68.042,15.831C67.73,16.63 66.208,22.177 66.103,24.501C66.103,24.501 63.128,27.034 60.536,27.448C57.941,27.866 57.318,26.235 57.318,26.235C57.318,26.235 64.375,24.259 64.132,18.606C63.892,12.954 58.442,15.046 57.826,15.509C57.229,15.959 54.044,17.884 53.115,23.217C53.084,23.396 53.028,24.19 53.028,24.19C53.028,24.19 50.295,26.025 48.773,26.511C48.773,26.511 53.028,19.333 47.841,16.074C46.382,15.194 45.111,16.004 44.354,16.748C43.89,17.204 50.642,9.8 49.084,3.174C48.344,0.021 46.771,-0.317 45.328,0.194C43.137,1.06 42.307,2.342 42.307,2.342C42.307,2.342 39.469,6.47 38.81,12.608C38.153,18.744 37.185,26.166 37.185,26.166C37.185,26.166 35.835,27.484 34.591,27.553C33.344,27.62 33.898,23.841 33.898,23.841C33.898,23.841 34.866,18.086 34.8,17.114C34.728,16.144 34.66,15.624 33.518,15.278C32.376,14.93 31.13,16.387 31.13,16.387C31.13,16.387 27.846,21.379 27.57,22.142L27.394,22.456L27.223,22.246C27.223,22.246 29.539,15.45 27.327,15.347C25.113,15.242 23.66,17.774 23.66,17.774C23.66,17.774 21.134,22.006 21.03,22.49L20.859,22.282C20.859,22.282 21.895,17.359 21.689,16.143C21.479,14.93 20.34,15.173 20.34,15.173C20.34,15.173 18.887,14.999 18.506,15.936C18.126,16.873 16.742,23.078 16.568,25.055C16.568,25.055 12.937,27.655 10.548,27.689C8.163,27.725 8.406,26.174 8.406,26.174C8.406,26.174 17.158,23.171 14.77,17.242C13.698,15.716 12.454,15.237 10.69,15.27C8.924,15.306 6.736,16.384 5.318,19.574C4.639,21.094 4.394,22.541 4.253,23.631C4.253,23.631 2.723,23.946 1.893,23.253C1.061,22.559 0.635,23.253 0.635,23.253C0.635,23.253 -0.79,25.075 0.628,25.628C2.048,26.184 4.26,26.442 4.26,26.442C4.596,28.016 5.493,29.415 6.783,30.377C9.377,32.353 14.355,30.195 14.355,30.195L16.395,29.048C16.395,29.048 16.465,30.925 17.953,31.198C19.44,31.473 20.063,31.194 22.657,24.883C24.18,21.658 24.284,21.832 24.284,21.832C24.455,21.796 23.281,27.968 23.73,29.632C24.18,31.299 26.151,31.125 26.151,31.125C26.151,31.125 27.224,31.332 28.089,28.28C28.953,25.229 30.615,21.865 30.615,21.865C30.82,21.865 30.095,28.175 31.2,30.188C32.308,32.2 35.179,30.863 35.179,30.863C35.179,30.863 37.186,29.85 37.498,29.537C37.498,29.537 39.878,31.57 43.236,31.201C50.745,29.719 53.416,27.717 53.416,27.717C53.416,27.717 54.706,30.994 58.702,31.299C63.266,31.644 65.759,28.767 65.759,28.767C65.759,28.767 65.723,30.638 67.314,31.299C68.908,31.957 69.978,28.252 69.978,28.252L72.641,20.895C72.884,20.895 73.021,25.679 75.652,26.442C78.28,27.205 81.705,24.655 81.705,24.655C81.705,24.655 82.535,24.197 82.397,22.81C82.257,21.422 81.013,21.94 81.013,21.94ZM11.727,18.468C12.659,19.369 12.314,21.31 10.55,22.523C8.788,23.739 7.99,23.496 7.99,23.496C8.095,19.369 10.795,17.564 11.727,18.468ZM46.145,4.216C46.733,7.337 40.992,16.63 40.992,16.63C41.06,14.549 43.1,7.51 43.1,7.51C43.1,7.51 45.554,1.095 46.144,4.215L46.145,4.216ZM40.471,27.9C40.471,27.9 40.021,26.374 41.301,22.11C42.583,17.844 45.591,19.508 45.591,19.508C45.591,19.508 47.667,21.103 46.041,25.368C44.416,29.633 40.471,27.9 40.471,27.9ZM57.975,19.544C59.392,16.944 60.5,18.364 60.5,18.364C60.5,18.364 61.71,19.682 60.327,21.659C58.942,23.635 56.937,23.497 56.937,23.497C56.937,23.497 56.557,22.143 57.975,19.544Z" style="fill:rgb(224,78,57);fill-rule:nonzero;"/>
        <path d="M72.133,30.067L72.133,29.569L72.448,29.569C72.492,29.569 72.535,29.574 72.581,29.579C72.627,29.585 72.671,29.597 72.708,29.613C72.747,29.629 72.777,29.652 72.8,29.682C72.825,29.712 72.836,29.753 72.836,29.804C72.836,29.919 72.802,29.994 72.733,30.024C72.648,30.056 72.557,30.071 72.466,30.067L72.133,30.067ZM71.758,29.276L71.758,31.171L72.133,31.171L72.133,30.362L72.367,30.362L72.827,31.172L73.221,31.172L72.715,30.344C72.781,30.337 72.847,30.323 72.91,30.302C72.97,30.282 73.023,30.252 73.066,30.212C73.112,30.173 73.146,30.122 73.172,30.06C73.201,29.989 73.214,29.913 73.212,29.836C73.212,29.631 73.147,29.486 73.02,29.403C72.892,29.318 72.708,29.276 72.47,29.276L71.758,29.276ZM71.158,30.226C71.158,30.032 71.19,29.855 71.257,29.693C71.323,29.533 71.413,29.393 71.527,29.276C71.763,29.032 72.089,28.895 72.429,28.9C72.768,28.897 73.093,29.033 73.329,29.276C73.574,29.531 73.709,29.873 73.703,30.226C73.703,30.42 73.669,30.597 73.603,30.761C73.539,30.917 73.446,31.061 73.329,31.183C73.094,31.428 72.768,31.565 72.429,31.561C72.252,31.561 72.087,31.528 71.93,31.461C71.778,31.397 71.642,31.302 71.528,31.183C71.411,31.061 71.319,30.918 71.257,30.761C71.189,30.591 71.155,30.409 71.157,30.226L71.158,30.226ZM70.695,30.226C70.695,30.486 70.744,30.719 70.838,30.926C70.935,31.136 71.061,31.314 71.22,31.462C71.38,31.609 71.565,31.722 71.774,31.8C71.984,31.879 72.202,31.918 72.429,31.918C72.659,31.918 72.878,31.878 73.087,31.8C73.297,31.722 73.48,31.61 73.641,31.462C73.801,31.314 73.927,31.137 74.023,30.927C74.117,30.719 74.163,30.487 74.163,30.226C74.163,29.97 74.117,29.737 74.023,29.53C73.842,29.125 73.504,28.81 73.087,28.658C72.877,28.578 72.659,28.538 72.429,28.538C71.983,28.536 71.551,28.7 71.219,28.998C70.878,29.314 70.688,29.761 70.695,30.226Z" style="fill:rgb(224,78,57);fill-rule:nonzero;"/>
    </g>
</svg>
