<?xml version="1.0" encoding="UTF-8" standalone="no"?>
<!DOCTYPE svg PUBLIC "-//W3C//DTD SVG 1.1//EN" "http://www.w3.org/Graphics/SVG/1.1/DTD/svg11.dtd">
<svg width="100%" height="100%" viewBox="0 0 36 36" version="1.1" xmlns="http://www.w3.org/2000/svg" xmlns:xlink="http://www.w3.org/1999/xlink" xml:space="preserve" xmlns:serif="http://www.serif.com/" style="fill-rule:evenodd;clip-rule:evenodd;stroke-linejoin:round;stroke-miterlimit:2;">
    <g transform="matrix(1,0,0,1,0.035,2)">
        <path d="M29.542,10.361C29.159,10.23 28.774,10.109 28.385,9.997C28.45,9.73 28.51,9.467 28.564,9.208C29.439,4.958 28.867,1.534 26.912,0.407C25.038,-0.674 21.972,0.453 18.876,3.147C18.571,3.413 18.273,3.687 17.982,3.968C17.787,3.781 17.588,3.598 17.386,3.418C14.142,0.537 10.889,-0.677 8.937,0.454C7.064,1.538 6.509,4.756 7.298,8.784C7.376,9.183 7.465,9.58 7.563,9.974C7.103,10.105 6.659,10.244 6.233,10.393C2.429,11.719 0,13.797 0,15.953C0,18.18 2.608,20.413 6.57,21.768C6.891,21.877 7.215,21.978 7.542,22.072C7.436,22.496 7.342,22.924 7.259,23.354C6.508,27.312 7.095,30.455 8.962,31.532C10.891,32.644 14.129,31.501 17.281,28.745C17.537,28.521 17.787,28.291 18.031,28.054C18.347,28.359 18.671,28.654 19.002,28.94C22.056,31.568 25.072,32.629 26.938,31.549C28.865,30.433 29.491,27.057 28.678,22.95C28.614,22.628 28.542,22.308 28.463,21.99C28.69,21.922 28.913,21.853 29.131,21.781C33.25,20.416 35.93,18.21 35.93,15.953C35.93,13.79 33.422,11.697 29.542,10.361ZM28.648,20.324C28.452,20.389 28.25,20.452 28.045,20.513C27.59,19.073 26.976,17.542 26.225,15.961C26.942,14.417 27.532,12.906 27.974,11.476C28.342,11.582 28.698,11.694 29.042,11.812C32.367,12.957 34.395,14.649 34.395,15.953C34.395,17.342 32.205,19.145 28.648,20.324ZM27.173,23.248C27.532,25.064 27.583,26.706 27.345,27.99C27.131,29.144 26.701,29.913 26.169,30.221C25.037,30.876 22.615,30.024 20.004,27.777C19.695,27.511 19.394,27.236 19.1,26.953C20.113,25.846 21.124,24.559 22.112,23.129C23.849,22.975 25.49,22.723 26.978,22.379C27.05,22.667 27.115,22.957 27.173,23.248ZM12.249,30.107C11.143,30.498 10.262,30.509 9.729,30.202C8.596,29.548 8.125,27.025 8.768,23.64C8.844,23.24 8.931,22.843 9.03,22.448C10.502,22.773 12.131,23.007 13.872,23.148C14.866,24.547 15.907,25.833 16.956,26.959C16.733,27.175 16.505,27.385 16.272,27.589C14.877,28.808 13.481,29.673 12.249,30.107ZM7.067,20.315C5.315,19.716 3.868,18.938 2.876,18.089C1.985,17.326 1.535,16.568 1.535,15.953C1.535,14.645 3.486,12.976 6.739,11.842C7.134,11.705 7.547,11.575 7.976,11.453C8.425,12.915 9.015,14.444 9.727,15.991C9.006,17.56 8.408,19.113 7.953,20.593C7.656,20.508 7.36,20.415 7.067,20.315ZM8.804,8.489C8.129,5.039 8.577,2.436 9.706,1.782C10.908,1.086 13.566,2.078 16.367,4.566C16.55,4.729 16.73,4.894 16.906,5.064C15.862,6.185 14.831,7.461 13.846,8.851C12.156,9.008 10.538,9.26 9.051,9.596C8.959,9.23 8.877,8.861 8.804,8.49L8.804,8.489ZM24.303,12.316C23.951,11.71 23.587,11.111 23.21,10.52C24.356,10.665 25.455,10.857 26.486,11.092C26.177,12.085 25.791,13.122 25.336,14.186C25.004,13.556 24.66,12.933 24.303,12.316ZM17.982,6.161C18.69,6.928 19.399,7.784 20.097,8.713C18.682,8.646 17.265,8.646 15.85,8.712C16.548,7.792 17.263,6.936 17.982,6.161ZM11.621,12.327C11.269,12.938 10.931,13.558 10.607,14.185C10.16,13.125 9.778,12.083 9.465,11.076C10.491,10.847 11.584,10.659 12.723,10.517C12.342,11.111 11.974,11.715 11.621,12.327L11.621,12.327ZM12.756,21.499C11.579,21.368 10.469,21.19 9.444,20.967C9.761,19.942 10.152,18.878 10.609,17.795C10.934,18.423 11.273,19.042 11.627,19.654C11.992,20.283 12.369,20.899 12.756,21.499ZM18.025,25.854C17.297,25.069 16.571,24.201 15.863,23.267C16.551,23.294 17.252,23.308 17.965,23.308C18.697,23.308 19.421,23.292 20.134,23.26C19.434,24.211 18.728,25.08 18.025,25.854ZM25.351,17.74C25.831,18.834 26.236,19.893 26.557,20.9C25.515,21.138 24.391,21.33 23.206,21.472C23.585,20.87 23.953,20.26 24.309,19.644C24.67,19.017 25.017,18.382 25.351,17.74ZM22.979,18.877C22.435,19.822 21.86,20.75 21.255,21.658C20.16,21.735 19.063,21.774 17.965,21.773C16.847,21.773 15.759,21.738 14.712,21.67C14.092,20.764 13.506,19.835 12.956,18.885L12.956,18.885C12.408,17.94 11.897,16.974 11.423,15.99C11.896,15.006 12.406,14.04 12.951,13.094L12.951,13.094C13.497,12.148 14.078,11.222 14.693,10.32C15.762,10.239 16.857,10.197 17.965,10.197L17.965,10.197C19.077,10.197 20.175,10.24 21.243,10.321C21.852,11.222 22.43,12.144 22.974,13.085C23.521,14.029 24.038,14.991 24.523,15.968C24.043,16.956 23.528,17.926 22.979,18.877ZM26.145,1.736C27.348,2.43 27.816,5.228 27.06,8.898C27.012,9.132 26.958,9.371 26.899,9.612C25.408,9.268 23.79,9.012 22.095,8.853C21.108,7.447 20.085,6.169 19.058,5.063C19.327,4.803 19.602,4.551 19.884,4.305C22.537,1.996 25.016,1.085 26.145,1.736ZM17.965,12.745C19.737,12.745 21.173,14.181 21.173,15.953C21.173,17.725 19.737,19.162 17.965,19.162C16.193,19.162 14.757,17.725 14.757,15.953C14.757,14.181 16.193,12.745 17.965,12.745Z" style="fill:rgb(0,216,255);fill-rule:nonzero;"/>
    </g>
</svg>
