<?xml version="1.0" encoding="UTF-8" standalone="no"?>
<!DOCTYPE svg PUBLIC "-//W3C//DTD SVG 1.1//EN" "http://www.w3.org/Graphics/SVG/1.1/DTD/svg11.dtd">
<svg width="100%" height="100%" viewBox="0 0 152 152" version="1.1" xmlns="http://www.w3.org/2000/svg" xmlns:xlink="http://www.w3.org/1999/xlink" xml:space="preserve" xmlns:serif="http://www.serif.com/" style="fill-rule:evenodd;clip-rule:evenodd;stroke-linejoin:round;stroke-miterlimit:2;">
    <g id="Layer_2" transform="matrix(1,0,0,1,2.5,13)">
        <g id="Layer_1-2">
            <g>
                <g transform="matrix(1,0,0,1,0.01,0.01)">
                    <path d="M140.66,96.74C132.86,100.82 92.38,117.47 83.66,122.04C74.94,126.61 70.27,126.48 63.45,123.22C56.63,119.96 13.7,102.5 5.92,98.78C2,96.94 0,95.37 0,93.9L0,79.09C0,79.09 56.08,66.92 65.13,63.64C74.18,60.36 77.31,60.28 85,63.1C92.69,65.92 138.79,74.24 146.4,77L146.4,91.6C146.4,93.12 144.65,94.6 140.66,96.73L140.66,96.74Z" style="fill:rgb(163,36,34);fill-rule:nonzero;"/>
                </g>
                <g transform="matrix(1,0,0,1,0.01,0.01)">
                    <path d="M140.66,82C132.86,86.06 92.38,102.71 83.66,107.2C74.94,111.69 70.27,111.65 63.45,108.4C56.63,105.15 13.7,87.69 5.92,84C-1.86,80.31 -2.01,77.73 5.62,74.75C13.25,71.77 56.08,55 65.13,51.7C74.18,48.4 77.31,48.33 85,51.16C92.69,53.99 133,70 140.57,72.79C148.14,75.58 148.49,77.87 140.66,81.92L140.66,82Z" style="fill:rgb(220,56,44);fill-rule:nonzero;"/>
                </g>
                <g transform="matrix(1,0,0,1,0.01,0.01)">
                    <path d="M140.66,72.62C132.86,76.69 92.38,93.33 83.66,97.82C74.94,102.31 70.31,102.27 63.49,99C56.67,95.73 13.7,78.37 5.92,74.66C2,72.8 0,71.24 0,69.76L0,55C0,55 56.08,42.79 65.13,39.51C74.18,36.23 77.31,36.14 85,39C92.69,41.86 138.79,50.1 146.4,52.88L146.4,67.48C146.4,69 144.65,70.52 140.66,72.62Z" style="fill:rgb(163,36,34);fill-rule:nonzero;"/>
                </g>
                <g transform="matrix(1,0,0,1,0.01,0.01)">
                    <path d="M140.66,57.81C132.86,61.89 92.38,78.53 83.66,83.02C74.94,87.51 70.27,87.48 63.45,84.22C56.63,80.96 13.7,63.57 5.92,59.85C-1.86,56.13 -2,53.6 5.62,50.62C13.24,47.64 56.08,30.83 65.13,27.62C74.18,24.41 77.31,24.21 85,27C92.69,29.79 133,45.94 140.57,48.65C148.14,51.36 148.49,53.74 140.66,57.78L140.66,57.81Z" style="fill:rgb(220,56,44);fill-rule:nonzero;"/>
                </g>
                <g transform="matrix(1,0,0,1,0.01,0.01)">
                    <path d="M140.66,47.59C132.86,51.67 92.38,68.32 83.66,72.8C74.94,77.28 70.31,77.25 63.49,74C56.67,70.75 13.7,53.34 5.92,49.63C2,47.79 0,46.22 0,44.74L0,29.93C0,29.93 56.08,17.76 65.13,14.49C74.18,11.22 77.31,11.12 85,13.94C92.69,16.76 138.77,25.08 146.38,27.86L146.38,42.46C146.4,44 144.65,45.5 140.66,47.59Z" style="fill:rgb(163,36,34);fill-rule:nonzero;"/>
                </g>
                <g transform="matrix(1,0,0,1,0.01,0.01)">
                    <path d="M140.66,32.8C132.86,36.8 92.38,53.55 83.66,58C74.94,62.45 70.27,62.44 63.45,59.2C56.63,55.96 13.7,38.53 5.92,34.83C-1.86,31.13 -2.01,28.56 5.62,25.58C13.25,22.6 56.08,5.8 65.13,2.54C74.18,-0.72 77.31,-0.82 85,2C92.69,4.82 133,20.85 140.57,23.63C148.14,26.41 148.49,28.72 140.66,32.77L140.66,32.8Z" style="fill:rgb(220,56,44);fill-rule:nonzero;"/>
                </g>
            </g>
            <path d="M75.51,11.78L85.17,8.61L82.55,14.87L92.38,18.55L79.71,19.87L76.86,26.71L72.28,19.08L57.63,17.76L68.57,13.82L65.28,7.76L75.51,11.78Z" style="fill:white;fill-rule:nonzero;"/>
            <path d="M76.12,51.71L52.44,41.88L86.36,36.67L76.12,51.71Z" style="fill:white;fill-rule:nonzero;"/>
            <g transform="matrix(1,0,0,1,0.01,0.01)">
                <path d="M43.28,22.34C53.28,22.34 61.41,25.49 61.41,29.34C61.41,33.19 53.26,36.34 43.28,36.34C33.3,36.34 25.14,33.19 25.14,29.34C25.14,25.49 33.27,22.34 43.28,22.34Z" style="fill:white;fill-rule:nonzero;"/>
            </g>
            <path d="M107.39,20.42L127.46,28.35L107.41,36.28L107.39,20.42Z" style="fill:rgb(116,17,19);fill-rule:nonzero;"/>
            <path d="M107.39,20.42L107.41,36.28L105.23,37.13L85.17,29.2L107.39,20.42Z" style="fill:rgb(172,39,36);fill-rule:nonzero;"/>
        </g>
    </g>
</svg>
