<?xml version="1.0" encoding="UTF-8" standalone="no"?>
<!DOCTYPE svg PUBLIC "-//W3C//DTD SVG 1.1//EN" "http://www.w3.org/Graphics/SVG/1.1/DTD/svg11.dtd">
<svg width="100%" height="100%" viewBox="0 0 370 370" version="1.1" xmlns="http://www.w3.org/2000/svg" xmlns:xlink="http://www.w3.org/1999/xlink" xml:space="preserve" xmlns:serif="http://www.serif.com/" style="fill-rule:evenodd;clip-rule:evenodd;stroke-linejoin:round;stroke-miterlimit:2;">
    <g id="g15" transform="matrix(1,0,0,1,-97.3743,-43.9401)">
        <path id="path13" d="M316.63,100.505L463.478,356.703L169.781,356.703L316.63,100.505" style="fill:rgb(195,15,46);fill-rule:nonzero;"/>
    </g>
    <g id="g19" transform="matrix(1,0,0,1,-97.3743,-43.9401)">
        <path id="path17" d="M226.187,138.667L351.161,357.375L101.213,357.375L226.187,138.667" style="fill:rgb(221,3,48);fill-rule:nonzero;"/>
    </g>
    <g id="path21" transform="matrix(1,0,0,1,3.86719,56.5651)">
        <path d="M337.336,191.453L25.68,191.453L25.68,188.031L337.336,188.031L337.336,191.453" style="fill:white;fill-rule:nonzero;"/>
    </g>
    <g id="g25" transform="matrix(1,0,0,1,-97.3743,-43.9401)">
        <path id="path23" d="M390.432,342.016C389.213,342.016 388.067,341.51 387.109,340.552C381.385,334.802 381.135,311.422 381.411,276.406C381.567,257.271 381.775,231.062 378.723,228.995C375.744,230.229 375.447,251.88 375.255,266.214C375.025,282.891 374.791,300.146 372.083,308.932C371.275,311.536 370.234,313.922 368.14,313.729C365.187,313.469 364.234,308.807 362.031,290.411C361.114,282.771 360.166,274.875 359.057,271.818C358.911,271.432 358.786,271.125 358.676,270.885C357.494,273.557 356.13,280.901 355.182,286C353.869,293.042 352.63,299.693 351.077,302.594C349.88,304.823 347.978,307.729 345.322,307.167C341.702,306.406 340.619,299.109 340.296,294.828C340.296,258.807 335.583,254.615 334.64,254.141L334.489,254.255L334.26,254.203C330.895,255.672 330.713,267.354 330.541,278.651C330.406,286.937 330.26,296.328 329.051,305.115C327.484,316.505 325.588,318.703 323.228,318.568C317.796,318.198 317.64,299.49 317.64,297.359C317.64,296.693 317.656,295.906 317.676,295.036C317.78,290.682 317.968,282.583 315.291,280.031C314.937,279.693 314.437,279.302 314.046,279.411C312.14,279.891 310.161,286.083 309.504,288.12C309.296,288.766 309.129,289.297 308.989,289.661C308.879,289.963 308.739,290.391 308.572,290.906C307.129,295.286 305.489,299.656 302.687,300.734C301.65,301.135 300.567,301.047 299.551,300.474C298.202,299.708 297.103,298.146 296.077,295.547C295.515,294.109 295.036,292.651 294.546,291.187C293.952,289.401 293.343,287.552 292.588,285.797C291.994,284.432 290.515,283.818 288.629,284.151C284.713,284.849 284.057,288.807 283.504,294.766C283.406,295.802 283.312,296.818 283.182,297.776C283.166,298.057 282.473,306.802 282.03,309.583C280.807,317.208 279.197,320.213 276.525,319.995C269.932,319.432 266.905,290.51 267.067,278.292C267.192,268.963 265.504,265.557 264.494,265.016C264.39,264.969 264.228,264.88 263.843,265.151C262.65,265.958 261.588,268.474 261.916,271.115C265.546,299.87 262.869,332.802 256.312,340.219C254.244,342.552 251.432,342.521 249.473,340.552C243.744,334.802 243.504,311.422 243.775,276.406C243.932,257.271 244.135,231.062 241.088,228.995C238.109,230.229 237.817,251.88 237.619,266.213C237.39,282.891 237.155,300.146 234.442,308.932C233.635,311.536 232.593,313.922 230.504,313.729C227.546,313.469 226.598,308.807 224.39,290.411C223.473,282.771 222.525,274.875 221.416,271.818C221.275,271.432 221.15,271.125 221.036,270.885C219.859,273.557 218.494,280.901 217.546,286C216.234,293.042 214.994,299.693 213.437,302.594C212.239,304.823 210.338,307.729 207.687,307.167C204.067,306.406 202.984,299.109 202.661,294.828C202.655,258.807 197.947,254.614 197.004,254.141L196.853,254.255L196.619,254.203C193.26,255.672 193.077,267.354 192.9,278.651C192.77,286.937 192.624,296.328 191.416,305.114C189.848,316.505 187.968,318.724 185.598,318.568C180.155,318.198 179.999,299.489 179.999,297.359C179.999,296.693 180.02,295.906 180.041,295.036C180.145,290.682 180.333,282.583 177.655,280.031C177.301,279.693 176.801,279.302 176.411,279.411C174.504,279.89 172.52,286.083 171.874,288.12C171.666,288.76 171.489,289.297 171.359,289.661C171.244,289.958 171.103,290.385 170.937,290.901C169.494,295.281 167.853,299.656 165.056,300.734C164.015,301.135 162.926,301.047 161.916,300.474C160.567,299.708 159.463,298.146 158.442,295.547C157.879,294.109 157.395,292.651 156.911,291.187C156.317,289.401 155.702,287.552 154.947,285.797C154.359,284.432 152.874,283.818 150.989,284.151C146.478,284.953 145.411,290.547 144.551,297.224L144.4,298.411L140.989,297.958L141.15,296.791C141.895,290.937 143.03,282.088 150.39,280.786C153.853,280.172 156.879,281.609 158.098,284.443C158.916,286.338 159.556,288.255 160.171,290.114C160.629,291.515 161.098,292.916 161.64,294.302C162.593,296.719 163.333,297.344 163.609,297.495C165.333,296.958 167.093,291.599 167.676,289.833C167.859,289.265 168.015,288.797 168.14,288.463C168.26,288.135 168.416,287.656 168.603,287.078C170.155,282.224 172.103,276.969 175.562,276.094C176.619,275.823 178.254,275.859 180.03,277.557C183.801,281.156 183.603,289.557 183.473,295.12C183.452,295.953 183.432,296.713 183.432,297.359C183.432,306.234 184.749,312.437 185.754,314.568C186.275,313.479 187.166,310.844 188.015,304.651C189.192,296.068 189.343,286.786 189.468,278.599C189.697,264.109 189.859,253.604 195.103,251.135C195.885,250.656 197.182,250.396 198.551,251.088C203.624,253.64 206.088,267.906 206.088,294.698C206.405,298.838 207.52,303.198 208.437,303.823C208.442,303.729 209.187,303.271 210.411,300.979C211.718,298.547 213.02,291.547 214.166,285.375C216.702,271.771 217.853,266.995 220.853,266.745C223.14,266.521 224.197,269.427 224.64,270.651C225.89,274.078 226.817,281.812 227.796,290.005C228.562,296.359 229.65,305.432 230.76,309.104C230.879,308.781 231.015,308.396 231.161,307.922C233.728,299.604 233.963,282.609 234.187,266.166C234.499,243.328 234.9,229.177 239.067,226.224C239.994,225.567 241.124,225.406 242.228,225.776C247.109,227.396 247.484,241.703 247.208,276.437C247.01,301.625 246.765,332.974 251.911,338.14C252.359,338.594 252.676,338.594 252.791,338.594C253.03,338.594 253.374,338.364 253.739,337.953C258.947,332.062 262.244,301.13 258.51,271.547C258.046,267.864 259.468,263.995 261.895,262.328C263.234,261.406 264.775,261.286 266.109,262C269.145,263.614 270.619,269.109 270.499,278.338C270.286,294.453 274.155,313.312 276.682,316.323C277.083,315.656 277.874,313.828 278.635,309.041C279.062,306.396 279.765,297.505 279.775,297.416C279.9,296.411 279.994,295.437 280.083,294.448C280.603,288.896 281.244,281.989 288.025,280.786C291.484,280.172 294.51,281.604 295.734,284.442C296.551,286.338 297.187,288.255 297.801,290.114C298.27,291.515 298.739,292.916 299.28,294.302C300.228,296.719 300.973,297.344 301.244,297.495C302.968,296.958 304.734,291.599 305.312,289.838C305.499,289.271 305.655,288.797 305.775,288.463C305.9,288.14 306.051,287.656 306.234,287.078C307.791,282.224 309.739,276.969 313.202,276.094C314.249,275.823 315.89,275.859 317.666,277.557C321.437,281.156 321.239,289.557 321.114,295.12C321.088,295.953 321.067,296.713 321.067,297.359C321.067,306.234 322.385,312.437 323.39,314.567C323.905,313.479 324.796,310.844 325.655,304.651C326.833,296.067 326.973,286.786 327.109,278.599C327.333,264.109 327.494,253.604 332.739,251.135C333.52,250.656 334.817,250.396 336.192,251.088C341.26,253.64 343.728,267.906 343.728,294.698C344.046,298.838 345.161,303.198 346.072,303.823C346.083,303.729 346.817,303.271 348.051,300.979C349.359,298.547 350.655,291.547 351.806,285.375C354.333,271.771 355.489,266.994 358.489,266.744C360.78,266.521 361.838,269.427 362.28,270.651C363.525,274.078 364.452,281.812 365.442,290.005C366.197,296.359 367.286,305.432 368.4,309.104C368.515,308.781 368.65,308.396 368.796,307.922C371.364,299.604 371.593,282.609 371.822,266.166C372.129,243.328 372.536,229.177 376.702,226.224C377.635,225.567 378.76,225.406 379.864,225.776C384.749,227.396 385.124,241.703 384.843,276.437C384.645,301.625 384.4,332.974 389.541,338.14C389.999,338.593 390.312,338.593 390.431,338.593C390.666,338.593 391.01,338.364 391.369,337.953C396.588,332.062 399.879,301.13 396.145,271.547C395.661,267.692 396.754,263.807 398.749,262.312C399.754,261.552 400.978,261.396 402.103,261.869C405.01,263.109 406.978,268.422 408.124,278.119C408.603,282.182 409.03,286.573 409.442,290.906C410.348,300.364 411.577,313.109 413.239,315.911C413.749,315.26 414.791,313.5 416.338,308.781L419.603,309.849C417.202,317.146 415.322,319.896 412.874,319.614C409.067,319.192 407.968,311.5 406.025,291.234C405.614,286.922 405.192,282.557 404.713,278.515C403.254,266.146 400.775,265.026 400.749,265.015C400.265,265.26 399.14,267.833 399.556,271.114C403.176,299.869 400.51,332.807 393.947,340.218C392.89,341.411 391.702,342.015 390.431,342.015" style="fill:white;fill-rule:nonzero;"/>
    </g>
</svg>
