<?xml version="1.0" encoding="UTF-8" standalone="no"?>
<!DOCTYPE svg PUBLIC "-//W3C//DTD SVG 1.1//EN" "http://www.w3.org/Graphics/SVG/1.1/DTD/svg11.dtd">
<svg width="100%" height="100%" viewBox="0 0 124 124" version="1.1" xmlns="http://www.w3.org/2000/svg" xmlns:xlink="http://www.w3.org/1999/xlink" xml:space="preserve" xmlns:serif="http://www.serif.com/" style="fill-rule:evenodd;clip-rule:evenodd;stroke-linejoin:round;stroke-miterlimit:2;">
    <g transform="matrix(0.873028,0.48767,-0.497212,0.867629,25.4805,49.3037)">
        <path d="M9.631,4.816C9.631,2.158 7.474,0 4.816,0C2.158,0 0,2.158 0,4.816L0,36.036C0,38.694 2.158,40.852 4.816,40.852C7.474,40.852 9.631,38.694 9.631,36.036L9.631,4.816Z" style="fill:rgb(197,247,79);"/>
    </g>
    <g transform="matrix(0.873028,0.48767,-0.497212,0.867629,58.9395,28.5342)">
        <path d="M9.631,4.816C9.631,2.158 7.474,0 4.816,0C2.158,0 0,2.158 0,4.816L0,36.036C0,38.694 2.158,40.852 4.816,40.852C7.474,40.852 9.631,38.694 9.631,36.036L9.631,4.816Z" style="fill:rgb(197,247,79);"/>
    </g>
    <g transform="matrix(0.873028,0.48767,-0.497212,0.867629,110.424,28.5352)">
        <path d="M9.631,4.816C9.631,2.158 7.474,0 4.816,0C2.158,0 0,2.158 0,4.816L0,36.036C0,38.694 2.158,40.852 4.816,40.852C7.474,40.852 9.631,38.694 9.631,36.036L9.631,4.816Z" style="fill:rgb(197,247,79);"/>
    </g>
    <g transform="matrix(0.873028,0.48767,-0.497212,0.867629,76.957,49.3037)">
        <path d="M9.631,4.816C9.631,2.158 7.474,0 4.816,0C2.158,0 0,2.158 0,4.816L0,36.036C0,38.694 2.158,40.852 4.816,40.852C7.474,40.852 9.631,38.694 9.631,36.036L9.631,4.816Z" style="fill:rgb(197,247,79);"/>
    </g>
</svg>
