<?xml version="1.0" encoding="UTF-8" standalone="no"?>
<!DOCTYPE svg PUBLIC "-//W3C//DTD SVG 1.1//EN" "http://www.w3.org/Graphics/SVG/1.1/DTD/svg11.dtd">
<svg width="100%" height="100%" viewBox="0 0 630 630" version="1.1" xmlns="http://www.w3.org/2000/svg" xmlns:xlink="http://www.w3.org/1999/xlink" xml:space="preserve" xmlns:serif="http://www.serif.com/" style="fill-rule:evenodd;clip-rule:evenodd;stroke-linejoin:round;stroke-miterlimit:2;">
    <g transform="matrix(1,0,0,1,172,5)">
        <path d="M262.6,341.06L282.87,159C282.87,159 263.67,174.9 141.45,174.9C19.22,174.9 2,159.33 2,159.33L18.06,314.1C26.66,289.63 47.16,239.85 79.51,241.52C94.21,242.27 113.81,270.56 97.01,271.52C89.91,271.92 89.21,257.4 80.81,255.27C74.74,253.73 66.28,258.67 60.81,264.02C49.91,274.69 26.46,316.78 29.56,337.77C33.52,364.52 66.49,328.47 72.06,317.77C76,310.23 78.66,287.89 87.26,290.23C95.84,292.57 86.5,315.63 80.26,336.01C73.26,358.91 69.59,383.09 60.82,380.31C52.05,377.51 66.32,347.99 65.82,342.81C57.57,350.41 42.35,369.71 22.89,360.11L33.19,459.45C33.19,459.45 60.02,480.65 140.84,480.65C221.64,480.65 249.49,459.79 249.49,459.79L260.92,357.14C249.72,367.24 219.12,383.34 217.1,363.94C215.44,347.89 252.26,324.62 242.8,323.84C222.47,325.04 212.34,347.71 202.1,371.44C198.36,380.14 185.53,417.28 177.1,412.71C168.7,408.13 188.02,377.61 193.43,359.51C187.18,364.07 164.26,381.87 158.36,365.21C148.86,373.26 128.56,377.63 130.86,356.45C125.82,365.41 114.46,377.9 100.86,372.71C83,365.89 111.23,308.96 118.26,311.83C125.26,314.7 116.83,327.67 114.62,332.71C109.76,343.79 104.15,357.73 107.92,360.58C114.32,365.46 131.82,342.08 132.19,341.58C135.46,337.26 144.79,308.98 152.29,312.24C159.79,315.48 133.56,352.8 143.37,360.21C145.37,361.71 153.45,359.29 158.37,353.96C161.57,350.52 160.47,342.89 171.07,317.56C181.71,292.23 191.17,260.69 198.47,263.09C205.74,265.49 199.74,281.69 197.13,287.72C184.89,316.06 163.68,362.86 173.68,359.32C183.68,355.77 188.88,355.57 198.68,344.12C208.48,332.65 208.02,313.77 214.55,314.18C221.09,314.58 219.99,320.62 218.41,325.23C224.83,317.89 248.86,302.4 254.66,317.73C261.56,335.89 220.3,362.11 230.59,360.78C240.14,359.52 255.37,350.12 262.79,341.14L262.6,341.06ZM178.9,129.64C167.48,129.22 155.5,129 143.16,129C64.56,129 0.86,137.96 0.86,149C0.86,160.04 64.56,169 143.14,169C221.72,169 285.42,160.04 285.42,149C285.42,141 251.99,134.1 203.7,130.9L213.55,91.97L284.02,17.82L283.69,17.54C283.89,17.41 284.11,17.24 284.29,17.04C286.09,14.99 283.39,9.76 278.29,5.34C273.19,0.94 267.62,-0.96 265.85,1.07C265.61,1.34 265.45,1.67 265.37,2.02L190.8,81L178.86,129.64L178.9,129.64ZM220.42,600.18C220.42,610.7 185.72,619.23 142.92,619.23C100.12,619.23 65.42,610.7 65.42,600.18L58.78,502.04L40,470.86C40,470.86 77.52,486.16 141.3,486.16C205.1,486.16 243.2,470.56 243.2,470.56L226.46,499.16L220.4,600.18L220.42,600.18ZM196.9,154.44C199.3,154.12 203,153.67 203,150.77C203,149.07 201.56,148.07 199.92,147.57L198.7,149.47C199.7,149.72 200.3,150.03 200.3,150.35C200.28,151.43 192.6,151.95 186.26,152.03C179.92,152.11 171.62,151.36 171.63,150.27C171.63,150.04 171.93,149.82 172.48,149.64L171.25,147.71C169.95,148.29 168.93,149.11 168.93,150.57C168.93,151.33 169.26,152.44 169.88,153C172.18,155.1 177.93,155.17 186.04,155.13C194.14,155.1 196.91,154.48 196.91,154.48L196.9,154.44Z" style="fill:rgb(203,65,18);"/>
    </g>
</svg>
