<?xml version="1.0" encoding="UTF-8" standalone="no"?>
<!DOCTYPE svg PUBLIC "-//W3C//DTD SVG 1.1//EN" "http://www.w3.org/Graphics/SVG/1.1/DTD/svg11.dtd">
<svg width="100%" height="100%" viewBox="0 0 320 320" version="1.1" xmlns="http://www.w3.org/2000/svg" xmlns:xlink="http://www.w3.org/1999/xlink" xml:space="preserve" xmlns:serif="http://www.serif.com/" style="fill-rule:evenodd;clip-rule:evenodd;stroke-linejoin:round;stroke-miterlimit:2;">
    <g>
        <path d="M144.943,258.523C101.513,252.413 66.593,212.198 65.693,168.51C64.98,143.252 74.035,116.851 92.669,99.393C90.709,109.365 84.265,121.756 86.122,133.509C86.153,147.882 99.846,161.969 114.637,158.067C127.889,154.867 132.892,139.27 129.335,127.239C125.735,110.977 117.247,95.414 119.693,78.242C122.057,45.886 146.589,20.22 173.583,4.975C179.037,0.974 177.177,4.241 174.641,8.182C165.447,23.056 164.151,42.192 172.079,57.89C183.581,84.902 206.07,108.282 207.36,138.89C207.637,145.175 205.482,161.298 214.71,150.877C229.264,137.273 228.163,114.641 221.57,97.404C219.78,87.676 231.479,103.98 234.366,106.823C259.709,138.529 261.059,186.744 237.053,219.586C216.966,248.758 179.855,264.473 144.943,258.523Z" style="fill:rgb(228,31,28);fill-rule:nonzero;"/>
        <path d="M139.302,315.444C82.363,307.677 34.8,268.05 16.436,213.082C10.715,195.956 9.081,185.458 9.024,165.469C8.989,152.968 9.469,145.823 10.838,138.469C21.878,79.159 65.408,32.467 123.285,17.849C129.557,16.265 135.317,14.969 136.083,14.969C138.557,14.969 137.582,17.073 132.561,22.566C121.849,34.287 113.217,50.311 109.794,64.83L108.058,72.19L101.018,76.971C77.348,93.041 61.322,117.284 56.004,145.059C54.121,154.892 53.868,174.101 55.502,183.111C63.452,226.952 97.173,261.195 140.487,269.411C157.269,272.595 179.088,270.939 194.826,265.286C226.611,253.87 250.837,228.942 260.776,197.426C264.489,185.654 265.589,178.253 265.573,165.156C265.543,140.609 258.618,119.966 243.815,100.298C230.95,83.205 215.241,72.392 189.327,62.792C186.051,61.578 182.019,53.089 179.907,42.956C178.283,35.171 178.96,27.784 181.991,20.219C183.488,16.481 184.071,15.969 186.835,15.972C191.694,15.976 207.657,20.557 218.333,25.012C263.971,44.052 297.645,84.874 308.216,133.969C311.471,149.089 311.928,177.101 309.163,191.969C294.246,272.171 219.641,326.402 139.302,315.444Z" style="fill:rgb(73,73,73);fill-rule:nonzero;"/>
    </g>
</svg>
