<?xml version="1.0" encoding="UTF-8" standalone="no"?>
<!DOCTYPE svg PUBLIC "-//W3C//DTD SVG 1.1//EN" "http://www.w3.org/Graphics/SVG/1.1/DTD/svg11.dtd">
<svg width="100%" height="100%" viewBox="0 0 216 216" version="1.1" xmlns="http://www.w3.org/2000/svg" xmlns:xlink="http://www.w3.org/1999/xlink" xml:space="preserve" xmlns:serif="http://www.serif.com/" style="fill-rule:evenodd;clip-rule:evenodd;stroke-linejoin:round;stroke-miterlimit:2;">
    <g transform="matrix(1,0,0,1,-196,-28.5)">
        <circle cx="304" cy="151" r="22" style="fill:white;"/>
    </g>
    <g transform="matrix(1,0,0,1,-196,-28.5)">
        <circle cx="304" cy="151" r="11"/>
    </g>
    <g transform="matrix(1,0,0,1,-196,-28.5)">
        <path d="M239,131L303.932,195.932L368.908,130.955L387.661,149.708L303.202,234.167L219.047,150.012L239,131Z" style="fill:rgb(247,177,30);"/>
    </g>
    <g transform="matrix(1,0,0,1,-196,-28.5)">
        <path d="M215,231L288,54C288,54 290.922,41 304,41C316.078,41 320,53 320,53L390,225L303,82L215,231Z" style="fill:rgb(247,223,30);"/>
    </g>
</svg>
