<?xml version="1.0" encoding="UTF-8" standalone="no"?>
<!DOCTYPE svg PUBLIC "-//W3C//DTD SVG 1.1//EN" "http://www.w3.org/Graphics/SVG/1.1/DTD/svg11.dtd">
<svg width="100%" height="100%" viewBox="0 0 100 100" version="1.1" xmlns="http://www.w3.org/2000/svg" xmlns:xlink="http://www.w3.org/1999/xlink" xml:space="preserve" xmlns:serif="http://www.serif.com/" style="fill-rule:evenodd;clip-rule:evenodd;stroke-linejoin:round;stroke-miterlimit:2;">
    <g transform="matrix(1,0,0,1,3,19.5)">
        <path d="M72.732,20.936C70.055,20.094 68.673,20.378 65.865,20.071C61.525,19.598 59.795,17.901 59.062,13.536C58.651,11.099 59.136,7.53 58.088,5.321C56.084,1.109 51.394,-0.78 46.683,0.298C42.705,1.21 39.395,5.185 39.212,9.266C39.002,13.925 41.657,17.901 46.216,19.273C48.381,19.926 50.683,20.255 52.944,20.421C57.093,20.724 57.411,23.03 58.533,24.928C59.241,26.124 59.926,27.303 59.926,30.871C59.926,34.439 59.237,35.619 58.533,36.815C57.411,38.709 56.027,39.949 51.879,40.256C49.617,40.423 47.312,40.751 45.15,41.404C40.592,42.781 37.937,46.752 38.146,51.411C38.33,55.492 41.64,59.468 45.617,60.38C50.329,61.462 55.019,59.569 57.023,55.356C58.075,53.147 58.651,50.644 59.062,48.207C59.8,43.841 61.529,42.145 65.865,41.672C68.673,41.365 71.578,41.672 74.209,40.177C76.99,38.146 79.473,35.097 79.473,30.871C79.473,26.646 76.797,22.216 72.732,20.936Z" style="fill:rgb(244,66,80);fill-rule:nonzero;"/>
    </g>
    <g transform="matrix(1,0,0,1,3,19.5)">
        <path d="M28.2,40.774C22.729,40.774 18.266,36.303 18.266,30.821C18.266,25.34 22.729,20.869 28.2,20.869C33.671,20.869 38.134,25.34 38.134,30.821C38.134,36.298 33.667,40.774 28.2,40.774Z" style="fill:white;fill-rule:nonzero;"/>
    </g>
    <g transform="matrix(1,0,0,1,3,19.5)">
        <path d="M9.899,61C4.437,60.987 -0.013,56.498 0,51.012C0.013,45.535 4.494,41.077 9.969,41.095C15.436,41.108 19.886,45.597 19.868,51.083C19.855,56.555 15.374,61.013 9.899,61Z" style="fill:white;fill-rule:nonzero;"/>
    </g>
    <g transform="matrix(1,0,0,1,3,19.5)">
        <path d="M83.714,61C78.234,61.03 73.736,56.59 73.705,51.122C73.675,45.632 78.107,41.126 83.565,41.095C89.044,41.064 93.542,45.505 93.573,50.973C93.604,56.458 89.172,60.969 83.714,61Z" style="fill:white;fill-rule:nonzero;"/>
    </g>
</svg>
